PathFileType	4	(X/Y/Z)	./motion_analysis/DM_ngait_tm_med1_new.trc
DataRate	CameraRate	NumFrames	NumMarkers	Units	OrigDataRate	OrigDataStartFrame	OrigNumFrames
120	120	6	68	mm	120	1545	2061
Frame#	Time	Sternum			Neck			R_Shoulder			L_Shoulder			Xiphoid			Thoracic			R_Asis			L_Asis			R_Psis			L_Psis			Lumbar			R_Elbow			R_ElbowMedial			R_ShoulderAnterior			R_ShoulderPosterior			R_Wrist			R_Radius			R_Ulna			L_Elbow			L_ElbowMedial			L_ShoulderAnterior			L_ShoulderPosterior			L_Wrist			L_Ulna			L_Radius			L_Thigh_Superior			L_Thigh_Inferior			L_Thigh_Lateral			L_Knee_Lateral			L_Knee_Medial			L_Patella			L_Shank_Superior			L_Shank_Inferior			L_Shank_Lateral			L_Ankle_Lateral			L_Ankle_Medial			R_Thigh_Superior			R_Thigh_Inferior			R_Thigh_Lateral			R_Knee_Lateral			R_Knee_Medial			R_Patella			R_Shank_Superior			R_Shank_Inferior			R_Shank_Lateral			R_Ankle_Lateral			RankleMedial			R_Heel			R_Toe			R_Midfoot_Medial			R_Midfoot_Lateral			R_Hindfoot			R_Midfoot_Superior			R_ToeMedial			R_ToeLateral			L_Heel			L_Toe			L_Midfoot_Medial			L_Midfoot_Lateral			L_Hindfoot			L_Midfoot_Superior			L_ToeMedial			L_ToeLateral			Oglobal			Sacral			Xglobal			Yglobal			Zglobal			
		X1	Y1	Z1	X2	Y2	Z2	X3	Y3	Z3	X4	Y4	Z4	X5	Y5	Z5	X6	Y6	Z6	X7	Y7	Z7	X8	Y8	Z8	X9	Y9	Z9	X10	Y10	Z10	X11	Y11	Z11	X12	Y12	Z12	X13	Y13	Z13	X14	Y14	Z14	X15	Y15	Z15	X16	Y16	Z16	X17	Y17	Z17	X18	Y18	Z18	X19	Y19	Z19	X20	Y20	Z20	X21	Y21	Z21	X22	Y22	Z22	X23	Y23	Z23	X24	Y24	Z24	X25	Y25	Z25	X26	Y26	Z26	X27	Y27	Z27	X28	Y28	Z28	X29	Y29	Z29	X30	Y30	Z30	X31	Y31	Z31	X32	Y32	Z32	X33	Y33	Z33	X34	Y34	Z34	X35	Y35	Z35	X36	Y36	Z36	X37	Y37	Z37	X38	Y38	Z38	X39	Y39	Z39	X40	Y40	Z40	X41	Y41	Z41	X42	Y42	Z42	X43	Y43	Z43	X44	Y44	Z44	X45	Y45	Z45	X46	Y46	Z46	X47	Y47	Z47	X48	Y48	Z48	X49	Y49	Z49	X50	Y50	Z50	X51	Y51	Z51	X52	Y52	Z52	X53	Y53	Z53	X54	Y54	Z54	X55	Y55	Z55	X56	Y56	Z56	X57	Y57	Z57	X58	Y58	Z58	X59	Y59	Z59	X60	Y60	Z60	X61	Y61	Z61	X62	Y62	Z62	X63	Y63	Z63	X64	Y64	Z64	X65	Y65	Z65	X66	Y66	Z66	X67	Y67	Z67	X68	Y68	Z68	

1546	12.883333	-948.746	1364.11	486.717	-796.169	1454.41	483.255	-885.678	1398.96	315.68	-866.734	1400.58	658.63	-967.886	1201.33	490.612	-703.509	1262.99	490.672	-901.996	971.356	359.326	-905.059	981.6660000000001	635.391	-697.7809999999999	1007.67	468.055	-699.623	1005.67	545.896	-698.413	1056.18	502.524	-984.083	1098.64	226.685	-0	0	0	-0	0	0	-0	0	0	-1208.44	959.821	306.283	-1185.24	957.889	347.345	-1182.27	930.285	277.891	-912.165	1063.37	741.175	-0	0	0	-0	0	0	-0	0	0	-1047.85	834.026	708.009	-1004.23	827.208	727.3339999999999	-1037.68	850.591	664.535	-812.154	805.894	662.35	-776.634	587.9690000000001	612.711	-844.657	666.583	590.64	-0	0	0	-0	0	0	-777.052	484.441	551.498	-688.063	448.186	621.346	-552.732	211.558	624.134	-645.648	307.945	551.782	-0	0	0	-0	0	0	-841.234	790.943	326.786	-939.866	597.904	354.842	-996.4640000000001	684.596	397.811	-0	0	0	-0	0	0	-1045.64	545.73	415.981	-0	0	0	-1048.09	205.462	342.514	-1068.68	344.409	411.619	-0	0	0	-0	0	0	-1018.93	67.9589	391.969	-1308.02	129.942	381.739	-1242.95	91.639	437.495	-1230.12	84.9131	321.122	-1122	54.0113	335.146	-1159.65	159.337	383.836	-1278.71	109.991	427.296	-1271.64	105.771	334.496	-434.399	107.269	575.172	-726.741	61.0619	580.121	-646.5069999999999	44.2986	528.135	-634.1950000000001	46.7117	641.927	-525.933	57.6491	633.01	-604.485	137.764	580.896	-688.914	46.7125	534.802	-687.496	47.468	633.033	-0	0	0	-698.702	1006.67	506.975	-200	0	0	-0	0	200	-0	200	0	
1547	12.891667	-949.51	1364.06	484.412	-796.658	1453.86	480.622	-886.035	1398.31	312.759	-866.903	1400.73	656.0839999999999	-969.1180000000001	1201.11	488.531	-704.639	1262.04	488.231	-904.146	970.942	357.95	-906.729	981.269	634.4690000000001	-699.782	1007.1	466.455	-701.626	1005.1	544.17	-700.261	1055.64	501.02	-984.1130000000001	1097.2	225.374	-0	0	0	-0	0	0	-0	0	0	-1208.85	959.957	306.157	-1185.68	958.225	347.183	-1182.74	930.192	277.948	-911.349	1063.24	739.023	-0	0	0	-0	0	0	-0	0	0	-1045.66	832.9400000000001	706.159	-1002.14	826.54	725.855	-1035.27	849.346	662.593	-812.793	805.615	661.448	-775.9059999999999	587.8339999999999	612.397	-844.552	665.8869999999999	590.59	-0	0	0	-0	0	0	-776.064	484.031	551.864	-686.284	448.681	621.0599999999999	-548.53	213.56	624.215	-642.582	308.639	551.755	-0	0	0	-0	0	0	-843.12	790.797	326.039	-940.761	596.949	354.7	-997.441	683.183	397.967	-0	0	0	-0	0	0	-1045.23	544.721	416.987	-0	0	0	-1046.37	203.799	342.202	-1067.31	342.393	412.237	-0	0	0	-0	0	0	-1014.16	68.8154	391.81	-1304.82	122.131	383.242	-1238.49	85.8348	438.727	-1226.21	79.1986	322.29	-1117.05	51.439	335.607	-1157.42	155.757	384.379	-1274.74	103.03	428.578	-1268.04	98.943	335.858	-429.054	110.629	575.266	-720.222	60.633	580.061	-640.129	44.3188	528.174	-627.825	46.7336	641.967	-519.787	59.4546	633.0309999999999	-599.731	138.38	581.091	-682.259	46.503	534.874	-680.901	47.1363	633.053	-0	0	0	-700.704	1006.1	505.313	-200	0	0	-0	0	200	-0	200	0	
1548	12.9	-950.304	1364.11	481.972	-797.309	1453.38	477.853	-886.5309999999999	1397.78	310.094	-867.1609999999999	1401.03	653.644	-970.401	1200.99	486.498	-705.902	1261.22	485.86	-906.116	970.753	356.392	-908.369	980.944	633.484	-701.694	1006.76	464.845	-703.614	1004.77	542.397	-702.043	1055.34	499.547	-984.2859999999999	1095.95	224.085	-0	0	0	-0	0	0	-0	0	0	-1209.18	960.1079999999999	306.052	-1185.96	958.593	346.977	-1183.21	930.151	278.023	-910.446	1063.23	737.026	-0	0	0	-0	0	0	-0	0	0	-1043.66	832.101	704.478	-999.974	825.997	724.534	-1032.86	848.316	660.884	-813.7140000000001	805.351	660.609	-775.647	587.6420000000001	611.874	-844.9349999999999	665.2329999999999	590.328	-0	0	0	-0	0	0	-775.278	483.67	552.543	-684.978	449.162	620.688	-544.447	215.696	624.3200000000001	-639.747	309.417	551.67	-0	0	0	-0	0	0	-845.407	790.381	325.307	-941.871	596.329	354.478	-998.3630000000001	682.039	398.452	-0	0	0	-0	0	0	-1045.54	543.452	419.507	-0	0	0	-1044.55	202.376	341.751	-1065.99	340.519	412.631	-0	0	0	-0	0	0	-1009.17	69.7285	391.683	-1301.23	114.517	383.576	-1233.82	80.2024	439.008	-1221.57	73.6357	322.564	-1111.66	49.1035	335.673	-1154.83	152.285	384.33	-1270.46	96.3249	428.923	-1263.88	92.3451	336.158	-423.883	114.224	575.333	-713.696	60.2587	580.121	-633.857	44.4545	528.3099999999999	-621.434	46.7084	642.0940000000001	-513.6900000000001	61.2652	633.098	-594.9109999999999	139.009	581.478	-675.643	46.3901	534.828	-674.319	46.7942	633.068	-0	0	0	-702.654	1005.76	503.621	-200	0	0	-0	0	200	-0	200	0	
1549	12.908333	-951.171	1364.21	479.361	-797.99	1453	475.085	-887.144	1397.29	307.328	-867.634	1401.48	651.09	-971.787	1200.96	484.389	-707.224	1260.64	483.544	-907.979	970.474	354.812	-909.961	980.816	632.446	-703.534	1006.58	463.191	-705.51	1004.6	540.669	-703.787	1055.19	497.995	-984.525	1094.79	222.738	-0	0	0	-0	0	0	-0	0	0	-1209.47	960.232	306.005	-1186.13	958.904	346.791	-1183.58	930.086	278.126	-909.3920000000001	1063.31	735.073	-0	0	0	-0	0	0	-0	0	0	-1041.23	831.28	702.752	-997.612	825.534	723.1319999999999	-1030.2	847.313	659.033	-814.806	805.154	659.5119999999999	-775.885	587.45	611.304	-845.644	664.64	590.001	-0	0	0	-0	0	0	-775.199	482.895	552.3	-684.181	449.633	620.353	-540.8	217.924	624.419	-637.354	310.175	551.6950000000001	-0	0	0	-0	0	0	-847.905	790.508	324.298	-943.304	596.085	354.18	-999.309	681.34	399.221	-0	0	0	-0	0	0	-1045.71	542.619	420.791	-0	0	0	-1042.4	201.284	341.209	-1064.62	338.987	412.799	-0	0	0	-0	0	0	-1004.05	70.64830000000001	391.443	-1297.25	107.225	383.07	-1228.93	74.9813	438.636	-1216.44	68.3389	322.222	-1105.93	46.9836	335.47	-1152.01	149.078	383.726	-1265.97	90.01430000000001	428.476	-1259.29	85.97410000000001	335.637	-418.964	118.041	575.485	-707.283	59.7925	580.16	-627.718	44.6116	528.607	-615.048	46.4906	642.371	-507.785	63.3269	633.029	-590.377	139.589	582.186	-669.1849999999999	46.2391	534.941	-667.946	46.4791	633.177	-0	0	0	-704.522	1005.59	501.93	-200	0	0	-0	0	200	-0	200	0	
1550	12.916667	-952.231	1364.49	476.842	-798.811	1452.82	472.332	-888.013	1396.84	304.592	-868.326	1402.09	648.614	-973.248	1201.12	482.271	-708.648	1260.32	481.336	-909.668	970.684	353.14	-911.421	980.636	631.241	-705.194	1006.65	461.524	-707.216	1004.68	538.979	-705.3920000000001	1055.28	496.498	-984.848	1093.73	221.359	-0	0	0	-0	0	0	-0	0	0	-1209.68	960.275	305.958	-1186.25	959.115	346.603	-1183.84	929.985	278.086	-908.215	1063.49	733.099	-0	0	0	-0	0	0	-0	0	0	-1038.68	830.577	701.169	-995.111	825.217	721.84	-1027.47	846.455	657.3920000000001	-816.099	804.824	658.136	-776.62	587.271	610.625	-846.765	664.186	589.452	-0	0	0	-0	0	0	-775.67	481.902	551.952	-683.828	450.085	619.9930000000001	-537.342	220.261	624.711	-635.413	310.976	551.737	-0	0	0	-0	0	0	-850.587	790.9400000000001	322.97	-945.03	596.313	353.792	-1000.52	681.158	400.048	-0	0	0	-0	0	0	-1046.28	541.978	421.449	-0	0	0	-1040.04	200.543	340.565	-1063.23	337.72	412.84	-0	0	0	-0	0	0	-998.811	71.581	391.106	-1292.93	100.71	382.114	-1223.82	70.3096	437.874	-1210.94	63.5692	321.507	-1100.07	45.3528	335.151	-1148.86	146.226	382.825	-1261.25	84.447	427.562	-1254.45	80.139	334.988	-414.373	122.178	575.593	-701.026	59.2102	580.2569999999999	-621.645	44.7458	528.578	-609.0650000000001	46.8072	642.348	-502.159	65.5621	633.2	-586.349	140.417	582.232	-662.789	46.0936	534.92	-661.583	46.1163	633.251	-0	0	0	-706.205	1005.66	500.252	-200	0	0	-0	0	200	-0	200	0	
1551	12.925	-953.398	1364.81	474.19	-799.681	1452.77	469.52	-888.928	1396.47	301.854	-869.16	1402.84	646.0839999999999	-974.707	1201.34	479.967	-710.015	1260.26	479.286	-911.244	971.189	351.428	-912.759	980.496	629.966	-706.731	1006.88	459.841	-708.807	1004.92	537.2380000000001	-706.8819999999999	1055.55	495.013	-985.097	1092.64	219.939	-0	0	0	-0	0	0	-0	0	0	-1209.75	960.208	305.861	-1186.25	959.183	346.436	-1184.04	929.742	278.019	-906.888	1063.76	731.232	-0	0	0	-0	0	0	-0	0	0	-1035.89	829.931	699.544	-992.398	824.951	720.491	-1024.64	845.725	655.872	-817.7619999999999	804.746	656.914	-777.875	586.968	609.748	-848.258	663.775	588.775	-0	0	0	-0	0	0	-776.732	480.906	551.6849999999999	-684.061	450.505	619.554	-534.526	222.805	624.856	-633.856	311.872	551.658	-0	0	0	-0	0	0	-853.449	791.674	321.591	-946.985	596.869	353.109	-1001.92	681.347	400.769	-0	0	0	-0	0	0	-1047.01	541.5940000000001	421.724	-0	0	0	-1037.41	200.178	339.749	-1061.84	336.822	412.547	-0	0	0	-0	0	0	-993.376	72.43680000000001	390.754	-1288.24	95.0536	381.392	-1218.38	66.4207	437.167	-1205.17	59.6944	320.837	-1094.14	44.1707	334.805	-1145.18	143.902	382.051	-1256.13	79.8219	426.969	-1249.16	75.1643	334.278	-410.133	126.561	575.885	-694.732	58.5144	580.205	-615.7809999999999	45.0409	528.651	-603.207	46.9565	642.424	-496.482	68.0814	633.175	-582.366	141.221	582.6319999999999	-656.317	45.9433	534.845	-655.2569999999999	45.7157	633.2859999999999	-0	0	0	-707.769	1005.9	498.539	-200	0	0	-0	0	200	-0	200	0	
